<mxfile host="app.diagrams.net" agent="Mozilla/5.0 (Windows NT 10.0; Win64; x64; rv:134.0) Gecko/20100101 Firefox/134.0" version="26.0.6">
  <diagram id="sUOf4Gd8ax7YT49pBz8j" name="Page-1">
    <mxGraphModel dx="5382" dy="2361" grid="1" gridSize="10" guides="1" tooltips="1" connect="1" arrows="1" fold="1" page="1" pageScale="1" pageWidth="827" pageHeight="1169" math="0" shadow="0">
      <root>
        <mxCell id="0" />
        <mxCell id="1" parent="0" />
        <mxCell id="c2JuiSGzClaPHqtkE72D-1" style="edgeStyle=orthogonalEdgeStyle;rounded=0;orthogonalLoop=1;jettySize=auto;html=1;" parent="1" source="c2JuiSGzClaPHqtkE72D-5" target="c2JuiSGzClaPHqtkE72D-9" edge="1">
          <mxGeometry relative="1" as="geometry">
            <Array as="points">
              <mxPoint x="-2830" y="-640" />
              <mxPoint x="-2830" y="-640" />
            </Array>
            <mxPoint x="-2840" y="-615" as="sourcePoint" />
          </mxGeometry>
        </mxCell>
        <mxCell id="c2JuiSGzClaPHqtkE72D-2" value="http://vm126.gwrdmut:3089" style="edgeLabel;html=1;align=center;verticalAlign=middle;resizable=0;points=[];" parent="c2JuiSGzClaPHqtkE72D-1" vertex="1" connectable="0">
          <mxGeometry x="-0.1897" y="2" relative="1" as="geometry">
            <mxPoint x="8" y="-8" as="offset" />
          </mxGeometry>
        </mxCell>
        <mxCell id="c2JuiSGzClaPHqtkE72D-3" style="edgeStyle=orthogonalEdgeStyle;rounded=0;orthogonalLoop=1;jettySize=auto;html=1;" parent="1" source="c2JuiSGzClaPHqtkE72D-5" target="c2JuiSGzClaPHqtkE72D-9" edge="1">
          <mxGeometry relative="1" as="geometry">
            <Array as="points">
              <mxPoint x="-2730" y="-610" />
              <mxPoint x="-2730" y="-610" />
            </Array>
          </mxGeometry>
        </mxCell>
        <mxCell id="c2JuiSGzClaPHqtkE72D-4" value="ws://vm126.gwrdmut:3089" style="edgeLabel;html=1;align=center;verticalAlign=middle;resizable=0;points=[];" parent="c2JuiSGzClaPHqtkE72D-3" vertex="1" connectable="0">
          <mxGeometry x="-0.3568" y="-1" relative="1" as="geometry">
            <mxPoint x="25" y="-11" as="offset" />
          </mxGeometry>
        </mxCell>
        <mxCell id="c2JuiSGzClaPHqtkE72D-5" value="Reverse-proxy" style="verticalLabelPosition=bottom;sketch=0;aspect=fixed;html=1;verticalAlign=top;strokeColor=none;align=center;outlineConnect=0;shape=mxgraph.citrix.proxy_server;" parent="1" vertex="1">
          <mxGeometry x="-2970" y="-670" width="76.5" height="90" as="geometry" />
        </mxCell>
        <mxCell id="c2JuiSGzClaPHqtkE72D-6" style="edgeStyle=orthogonalEdgeStyle;rounded=0;orthogonalLoop=1;jettySize=auto;html=1;" parent="1" source="c2JuiSGzClaPHqtkE72D-9" target="c2JuiSGzClaPHqtkE72D-12" edge="1">
          <mxGeometry relative="1" as="geometry" />
        </mxCell>
        <mxCell id="c2JuiSGzClaPHqtkE72D-7" value="proxyweb:3128" style="edgeLabel;html=1;align=center;verticalAlign=middle;resizable=0;points=[];" parent="c2JuiSGzClaPHqtkE72D-6" vertex="1" connectable="0">
          <mxGeometry x="0.1613" y="-3" relative="1" as="geometry">
            <mxPoint y="-10" as="offset" />
          </mxGeometry>
        </mxCell>
        <mxCell id="c2JuiSGzClaPHqtkE72D-8" value="http://vm103-ecmcertif:8080 (upstream backend)" style="edgeStyle=orthogonalEdgeStyle;rounded=0;orthogonalLoop=1;jettySize=auto;html=1;" parent="1" source="c2JuiSGzClaPHqtkE72D-9" target="c2JuiSGzClaPHqtkE72D-23" edge="1">
          <mxGeometry x="-0.0372" y="10" relative="1" as="geometry">
            <Array as="points">
              <mxPoint x="-2470" y="-650" />
              <mxPoint x="-2470" y="-650" />
            </Array>
            <mxPoint as="offset" />
          </mxGeometry>
        </mxCell>
        <mxCell id="c2JuiSGzClaPHqtkE72D-9" value="&lt;div&gt;Gateway + Postgres (CentOS 7)&lt;br&gt;&lt;/div&gt;&lt;div&gt;172.19.196.159&lt;br&gt;&lt;/div&gt;" style="verticalLabelPosition=bottom;sketch=0;aspect=fixed;html=1;verticalAlign=top;strokeColor=none;align=center;outlineConnect=0;shape=mxgraph.citrix.tower_server;" parent="1" vertex="1">
          <mxGeometry x="-2708.5" y="-667.5" width="65" height="85" as="geometry" />
        </mxCell>
        <mxCell id="c2JuiSGzClaPHqtkE72D-10" style="edgeStyle=orthogonalEdgeStyle;rounded=0;orthogonalLoop=1;jettySize=auto;html=1;" parent="1" source="c2JuiSGzClaPHqtkE72D-12" target="c2JuiSGzClaPHqtkE72D-13" edge="1">
          <mxGeometry relative="1" as="geometry" />
        </mxCell>
        <mxCell id="c2JuiSGzClaPHqtkE72D-11" value="https://inetumtest.connective.eu:443" style="edgeLabel;html=1;align=center;verticalAlign=middle;resizable=0;points=[];" parent="c2JuiSGzClaPHqtkE72D-10" vertex="1" connectable="0">
          <mxGeometry x="0.1437" y="-2" relative="1" as="geometry">
            <mxPoint x="15" y="-13" as="offset" />
          </mxGeometry>
        </mxCell>
        <mxCell id="c2JuiSGzClaPHqtkE72D-12" value="Proxy" style="verticalLabelPosition=bottom;sketch=0;aspect=fixed;html=1;verticalAlign=top;strokeColor=none;align=center;outlineConnect=0;shape=mxgraph.citrix.proxy_server;" parent="1" vertex="1">
          <mxGeometry x="-2720" y="-465" width="76.5" height="90" as="geometry" />
        </mxCell>
        <mxCell id="c2JuiSGzClaPHqtkE72D-13" value="&lt;div&gt;Serveur Connective&lt;/div&gt;" style="verticalLabelPosition=bottom;sketch=0;aspect=fixed;html=1;verticalAlign=top;strokeColor=none;align=center;outlineConnect=0;shape=mxgraph.citrix.web_server;" parent="1" vertex="1">
          <mxGeometry x="-3260" y="-465" width="76.5" height="90" as="geometry" />
        </mxCell>
        <mxCell id="c2JuiSGzClaPHqtkE72D-14" style="edgeStyle=orthogonalEdgeStyle;rounded=0;orthogonalLoop=1;jettySize=auto;html=1;" parent="1" source="c2JuiSGzClaPHqtkE72D-18" target="c2JuiSGzClaPHqtkE72D-5" edge="1">
          <mxGeometry relative="1" as="geometry">
            <Array as="points">
              <mxPoint x="-3060" y="-640" />
              <mxPoint x="-3060" y="-640" />
            </Array>
          </mxGeometry>
        </mxCell>
        <mxCell id="c2JuiSGzClaPHqtkE72D-15" value="https://bd-demo.bdoc.in.isoftcloud.cloud" style="edgeLabel;html=1;align=center;verticalAlign=middle;resizable=0;points=[];" parent="c2JuiSGzClaPHqtkE72D-14" vertex="1" connectable="0">
          <mxGeometry x="0.1241" y="2" relative="1" as="geometry">
            <mxPoint x="-19" y="-8" as="offset" />
          </mxGeometry>
        </mxCell>
        <mxCell id="c2JuiSGzClaPHqtkE72D-16" style="edgeStyle=orthogonalEdgeStyle;rounded=0;orthogonalLoop=1;jettySize=auto;html=1;" parent="1" source="c2JuiSGzClaPHqtkE72D-18" target="c2JuiSGzClaPHqtkE72D-5" edge="1">
          <mxGeometry relative="1" as="geometry">
            <Array as="points">
              <mxPoint x="-3170" y="-610" />
              <mxPoint x="-3170" y="-610" />
            </Array>
          </mxGeometry>
        </mxCell>
        <mxCell id="c2JuiSGzClaPHqtkE72D-17" value="&lt;div&gt;wss://bd-demo.bdoc.in.isoftcloud.cloud&lt;/div&gt;" style="edgeLabel;html=1;align=center;verticalAlign=middle;resizable=0;points=[];" parent="c2JuiSGzClaPHqtkE72D-16" vertex="1" connectable="0">
          <mxGeometry x="-0.2142" y="-1" relative="1" as="geometry">
            <mxPoint x="20" y="-11" as="offset" />
          </mxGeometry>
        </mxCell>
        <mxCell id="c2JuiSGzClaPHqtkE72D-18" value="" style="verticalLabelPosition=bottom;sketch=0;aspect=fixed;html=1;verticalAlign=top;strokeColor=none;align=center;outlineConnect=0;shape=mxgraph.citrix.laptop_2;" parent="1" vertex="1">
          <mxGeometry x="-3290" y="-658.7" width="89.39" height="66.66" as="geometry" />
        </mxCell>
        <mxCell id="c2JuiSGzClaPHqtkE72D-19" style="edgeStyle=orthogonalEdgeStyle;rounded=0;orthogonalLoop=1;jettySize=auto;html=1;" parent="1" source="c2JuiSGzClaPHqtkE72D-23" target="c2JuiSGzClaPHqtkE72D-9" edge="1">
          <mxGeometry relative="1" as="geometry">
            <Array as="points">
              <mxPoint x="-2610" y="-600" />
              <mxPoint x="-2610" y="-600" />
            </Array>
          </mxGeometry>
        </mxCell>
        <mxCell id="c2JuiSGzClaPHqtkE72D-20" value="jdbc://vm126.gwcertmut:3046 (postgres)" style="edgeLabel;html=1;align=center;verticalAlign=middle;resizable=0;points=[];" parent="c2JuiSGzClaPHqtkE72D-19" vertex="1" connectable="0">
          <mxGeometry x="0.2357" y="1" relative="1" as="geometry">
            <mxPoint x="34" y="-11" as="offset" />
          </mxGeometry>
        </mxCell>
        <mxCell id="c2JuiSGzClaPHqtkE72D-21" style="edgeStyle=orthogonalEdgeStyle;rounded=0;orthogonalLoop=1;jettySize=auto;html=1;" parent="1" source="c2JuiSGzClaPHqtkE72D-23" target="c2JuiSGzClaPHqtkE72D-9" edge="1">
          <mxGeometry relative="1" as="geometry">
            <Array as="points">
              <mxPoint x="-2620" y="-627" />
              <mxPoint x="-2620" y="-627" />
            </Array>
          </mxGeometry>
        </mxCell>
        <mxCell id="c2JuiSGzClaPHqtkE72D-22" value="http://vm126.gwcertmut:3089 (gateway services)" style="edgeLabel;html=1;align=center;verticalAlign=middle;resizable=0;points=[];" parent="c2JuiSGzClaPHqtkE72D-21" vertex="1" connectable="0">
          <mxGeometry x="0.3801" y="1" relative="1" as="geometry">
            <mxPoint x="52" y="-11" as="offset" />
          </mxGeometry>
        </mxCell>
        <mxCell id="c2JuiSGzClaPHqtkE72D-23" value="&lt;div&gt;Backends Wildfly (Windows Server 2019)&lt;br&gt;&lt;/div&gt;&lt;div&gt;172.19.196.139&lt;/div&gt;&lt;div&gt;&lt;br&gt;&lt;/div&gt;" style="verticalLabelPosition=bottom;sketch=0;aspect=fixed;html=1;verticalAlign=top;strokeColor=none;align=center;outlineConnect=0;shape=mxgraph.citrix.tower_server;" parent="1" vertex="1">
          <mxGeometry x="-2360" y="-667.5" width="65" height="85" as="geometry" />
        </mxCell>
      </root>
    </mxGraphModel>
  </diagram>
</mxfile>
